<svg id="visual" viewBox="0 0 1920 1800" width="1920" height="1800" xmlns="http://www.w3.org/2000/svg" xmlns:xlink="http://www.w3.org/1999/xlink" version="1.1"><rect x="0" y="0" width="1920" height="1800" fill="#141414"></rect><defs><linearGradient id="grad1_0" x1="6.3%" y1="0%" x2="100%" y2="100%"><stop offset="28.666666666666668%" stop-color="#6634b6" stop-opacity="1"></stop><stop offset="71.33333333333333%" stop-color="#6634b6" stop-opacity="1"></stop></linearGradient></defs><defs><linearGradient id="grad1_1" x1="6.3%" y1="0%" x2="100%" y2="100%"><stop offset="28.666666666666668%" stop-color="#6634b6" stop-opacity="1"></stop><stop offset="71.33333333333333%" stop-color="#4b2b7b" stop-opacity="1"></stop></linearGradient></defs><defs><linearGradient id="grad1_2" x1="6.3%" y1="0%" x2="100%" y2="100%"><stop offset="28.666666666666668%" stop-color="#302045" stop-opacity="1"></stop><stop offset="71.33333333333333%" stop-color="#4b2b7b" stop-opacity="1"></stop></linearGradient></defs><defs><linearGradient id="grad1_3" x1="6.3%" y1="0%" x2="100%" y2="100%"><stop offset="28.666666666666668%" stop-color="#302045" stop-opacity="1"></stop><stop offset="71.33333333333333%" stop-color="#141414" stop-opacity="1"></stop></linearGradient></defs><defs><linearGradient id="grad2_0" x1="0%" y1="0%" x2="93.8%" y2="100%"><stop offset="28.666666666666668%" stop-color="#6634b6" stop-opacity="1"></stop><stop offset="71.33333333333333%" stop-color="#6634b6" stop-opacity="1"></stop></linearGradient></defs><defs><linearGradient id="grad2_1" x1="0%" y1="0%" x2="93.8%" y2="100%"><stop offset="28.666666666666668%" stop-color="#4b2b7b" stop-opacity="1"></stop><stop offset="71.33333333333333%" stop-color="#6634b6" stop-opacity="1"></stop></linearGradient></defs><defs><linearGradient id="grad2_2" x1="0%" y1="0%" x2="93.8%" y2="100%"><stop offset="28.666666666666668%" stop-color="#4b2b7b" stop-opacity="1"></stop><stop offset="71.33333333333333%" stop-color="#302045" stop-opacity="1"></stop></linearGradient></defs><defs><linearGradient id="grad2_3" x1="0%" y1="0%" x2="93.8%" y2="100%"><stop offset="28.666666666666668%" stop-color="#141414" stop-opacity="1"></stop><stop offset="71.33333333333333%" stop-color="#302045" stop-opacity="1"></stop></linearGradient></defs><g transform="translate(1920, 0)"><path d="M0 1052.7C-102.2 1064.9 -204.3 1077.2 -272.5 1016.9C-340.6 956.5 -374.7 823.7 -437 756.9C-499.3 690.2 -589.8 689.5 -644.2 644.2C-698.5 598.8 -716.6 508.7 -758.6 438C-800.7 367.3 -866.6 316.1 -919.6 246.4C-972.6 176.6 -1012.6 88.3 -1052.7 0L0 0Z" fill="#221a2c"></path><path d="M0 789.5C-76.6 798.7 -153.3 807.9 -204.3 762.6C-255.4 717.4 -281 617.7 -327.7 567.7C-374.5 517.6 -442.4 517.2 -483.1 483.1C-523.9 449.1 -537.5 381.5 -569 328.5C-600.5 275.5 -649.9 237.1 -689.7 184.8C-729.4 132.5 -759.5 66.2 -789.5 0L0 0Z" fill="#3e265f"></path><path d="M0 526.4C-51.1 532.5 -102.2 538.6 -136.2 508.4C-170.3 478.3 -187.3 411.8 -218.5 378.5C-249.7 345.1 -294.9 344.8 -322.1 322.1C-349.3 299.4 -358.3 254.3 -379.3 219C-400.3 183.7 -433.3 158.1 -459.8 123.2C-486.3 88.3 -506.3 44.2 -526.4 0L0 0Z" fill="#582f98"></path><path d="M0 263.2C-25.5 266.2 -51.1 269.3 -68.1 254.2C-85.1 239.1 -93.7 205.9 -109.2 189.2C-124.8 172.5 -147.5 172.4 -161 161C-174.6 149.7 -179.2 127.2 -189.7 109.5C-200.2 91.8 -216.6 79 -229.9 61.6C-243.1 44.2 -253.2 22.1 -263.2 0L0 0Z" fill="#6634b6"></path></g><g transform="translate(0, 1800)"><path d="M0 -1052.7C77.7 -1009.7 155.4 -966.8 257 -959.2C358.6 -951.6 484 -979.3 523 -905.9C562 -832.4 514.6 -657.7 594.7 -594.7C674.8 -531.7 882.5 -580.5 911.7 -526.4C940.9 -472.3 791.5 -315.3 785.3 -210.4C779.1 -105.5 915.9 -52.8 1052.7 0L0 0Z" fill="#221a2c"></path><path d="M0 -789.5C58.3 -757.3 116.6 -725.1 192.8 -719.4C268.9 -713.7 363 -734.5 392.2 -679.4C421.5 -624.3 385.9 -493.2 446 -446C506.1 -398.8 661.9 -435.3 683.8 -394.8C705.7 -354.2 593.7 -236.5 589 -157.8C584.3 -79.2 686.9 -39.6 789.5 0L0 0Z" fill="#3e265f"></path><path d="M0 -526.4C38.9 -504.9 77.7 -483.4 128.5 -479.6C179.3 -475.8 242 -489.7 261.5 -452.9C281 -416.2 257.3 -328.8 297.3 -297.3C337.4 -265.8 441.2 -290.2 455.8 -263.2C470.4 -236.1 395.8 -157.6 392.6 -105.2C389.5 -52.8 457.9 -26.4 526.4 0L0 0Z" fill="#582f98"></path><path d="M0 -263.2C19.4 -252.4 38.9 -241.7 64.3 -239.8C89.6 -237.9 121 -244.8 130.7 -226.5C140.5 -208.1 128.6 -164.4 148.7 -148.7C168.7 -132.9 220.6 -145.1 227.9 -131.6C235.2 -118.1 197.9 -78.8 196.3 -52.6C194.8 -26.4 229 -13.2 263.2 0L0 0Z" fill="#6634b6"></path></g></svg>