<svg id="visual" viewBox="0 0 1920 920" width="1920" height="920" xmlns="http://www.w3.org/2000/svg" xmlns:xlink="http://www.w3.org/1999/xlink" version="1.1"><g stroke-width="1" stroke-linejoin="bevel"><path d="M1016.3 435L1010.3 323.7L884.7 334.7Z" fill="#5b33a8" stroke="#5b33a8"></path><path d="M884.7 334.7L850.7 469L1016.3 435Z" fill="#8d2add" stroke="#8d2add"></path><path d="M875.7 597.3L1037.3 581.3L1016.3 435Z" fill="#8d2add" stroke="#8d2add"></path><path d="M1016.3 435L1192.8 316.7L1010.3 323.7Z" fill="#51339a" stroke="#51339a"></path><path d="M850.7 469L875.7 597.3L1016.3 435Z" fill="#5b33a8" stroke="#5b33a8"></path><path d="M1010.3 323.7L898.7 146.3L884.7 334.7Z" fill="#7232c3" stroke="#7232c3"></path><path d="M884.7 334.7L699.2 472L850.7 469Z" fill="#8d2add" stroke="#8d2add"></path><path d="M1210.8 460L1192.8 316.7L1016.3 435Z" fill="#7f2fd0" stroke="#7f2fd0"></path><path d="M1010.3 323.7L1074.3 150.3L898.7 146.3Z" fill="#392e6f" stroke="#392e6f"></path><path d="M1192.8 316.7L1074.3 150.3L1010.3 323.7Z" fill="#8d2add" stroke="#8d2add"></path><path d="M702.2 269.7L699.2 472L884.7 334.7Z" fill="#2d2952" stroke="#2d2952"></path><path d="M850.7 469L699.2 472L875.7 597.3Z" fill="#5b33a8" stroke="#5b33a8"></path><path d="M1037.3 581.3L1210.8 460L1016.3 435Z" fill="#5b33a8" stroke="#5b33a8"></path><path d="M898.7 146.3L702.2 269.7L884.7 334.7Z" fill="#7f2fd0" stroke="#7f2fd0"></path><path d="M729.2 0L716.2 141.3L898.7 146.3Z" fill="#322c60" stroke="#322c60"></path><path d="M898.7 146.3L716.2 141.3L702.2 269.7Z" fill="#5b33a8" stroke="#5b33a8"></path><path d="M540.6 443L662.2 585.3L699.2 472Z" fill="#7f2fd0" stroke="#7f2fd0"></path><path d="M699.2 472L662.2 585.3L875.7 597.3Z" fill="#5b33a8" stroke="#5b33a8"></path><path d="M555.6 337.7L699.2 472L702.2 269.7Z" fill="#48328c" stroke="#48328c"></path><path d="M713.2 797.7L908.7 739.7L875.7 597.3Z" fill="#322c60" stroke="#322c60"></path><path d="M875.7 597.3L908.7 739.7L1037.3 581.3Z" fill="#2d2952" stroke="#2d2952"></path><path d="M1037.3 581.3L1229.8 635.3L1210.8 460Z" fill="#48328c" stroke="#48328c"></path><path d="M1192.8 316.7L1209.8 128.3L1074.3 150.3Z" fill="#5b33a8" stroke="#5b33a8"></path><path d="M1074.3 150.3L905.7 0L898.7 146.3Z" fill="#51339a" stroke="#51339a"></path><path d="M1385.4 131.3L1209.8 128.3L1192.8 316.7Z" fill="#322c60" stroke="#322c60"></path><path d="M1189.8 772.7L1229.8 635.3L1037.3 581.3Z" fill="#392e6f" stroke="#392e6f"></path><path d="M1210.8 460L1372.4 442L1192.8 316.7Z" fill="#8d2add" stroke="#8d2add"></path><path d="M1071.3 0L905.7 0L1074.3 150.3Z" fill="#40307d" stroke="#40307d"></path><path d="M536.6 173.3L555.6 337.7L702.2 269.7Z" fill="#392e6f" stroke="#392e6f"></path><path d="M1209.8 128.3L1071.3 0L1074.3 150.3Z" fill="#6633b6" stroke="#6633b6"></path><path d="M555.6 337.7L540.6 443L699.2 472Z" fill="#392e6f" stroke="#392e6f"></path><path d="M908.7 739.7L1036.3 791.7L1037.3 581.3Z" fill="#5b33a8" stroke="#5b33a8"></path><path d="M1359.4 615.3L1372.4 442L1210.8 460Z" fill="#40307d" stroke="#40307d"></path><path d="M905.7 0L729.2 0L898.7 146.3Z" fill="#51339a" stroke="#51339a"></path><path d="M716.2 141.3L536.6 173.3L702.2 269.7Z" fill="#51339a" stroke="#51339a"></path><path d="M1371.4 0L1199.8 0L1209.8 128.3Z" fill="#5b33a8" stroke="#5b33a8"></path><path d="M1209.8 128.3L1199.8 0L1071.3 0Z" fill="#5b33a8" stroke="#5b33a8"></path><path d="M1036.3 791.7L1189.8 772.7L1037.3 581.3Z" fill="#5b33a8" stroke="#5b33a8"></path><path d="M1229.8 635.3L1359.4 615.3L1210.8 460Z" fill="#7f2fd0" stroke="#7f2fd0"></path><path d="M514.6 0L536.6 173.3L716.2 141.3Z" fill="#51339a" stroke="#51339a"></path><path d="M327.1 338.7L354.1 481L540.6 443Z" fill="#7f2fd0" stroke="#7f2fd0"></path><path d="M1404.4 795.7L1359.4 615.3L1229.8 635.3Z" fill="#5b33a8" stroke="#5b33a8"></path><path d="M354.1 481L528.6 604.3L540.6 443Z" fill="#7232c3" stroke="#7232c3"></path><path d="M540.6 443L528.6 604.3L662.2 585.3Z" fill="#7f2fd0" stroke="#7f2fd0"></path><path d="M662.2 585.3L713.2 797.7L875.7 597.3Z" fill="#8d2add" stroke="#8d2add"></path><path d="M908.7 739.7L906.7 920L1036.3 791.7Z" fill="#51339a" stroke="#51339a"></path><path d="M521.6 751.7L713.2 797.7L662.2 585.3Z" fill="#5b33a8" stroke="#5b33a8"></path><path d="M1569.9 433L1428.4 309.7L1372.4 442Z" fill="#392e6f" stroke="#392e6f"></path><path d="M1372.4 442L1428.4 309.7L1192.8 316.7Z" fill="#392e6f" stroke="#392e6f"></path><path d="M1428.4 309.7L1385.4 131.3L1192.8 316.7Z" fill="#2d2952" stroke="#2d2952"></path><path d="M713.2 797.7L906.7 920L908.7 739.7Z" fill="#8d2add" stroke="#8d2add"></path><path d="M1036.3 791.7L1205.8 920L1189.8 772.7Z" fill="#8d2add" stroke="#8d2add"></path><path d="M906.7 920L1022.3 920L1036.3 791.7Z" fill="#51339a" stroke="#51339a"></path><path d="M528.6 604.3L521.6 751.7L662.2 585.3Z" fill="#40307d" stroke="#40307d"></path><path d="M713.2 797.7L661.2 920L906.7 920Z" fill="#7232c3" stroke="#7232c3"></path><path d="M355.1 621.3L521.6 751.7L528.6 604.3Z" fill="#322c60" stroke="#322c60"></path><path d="M1385.4 131.3L1371.4 0L1209.8 128.3Z" fill="#6633b6" stroke="#6633b6"></path><path d="M1545.9 0L1371.4 0L1385.4 131.3Z" fill="#8d2add" stroke="#8d2add"></path><path d="M729.2 0L514.6 0L716.2 141.3Z" fill="#51339a" stroke="#51339a"></path><path d="M327.1 338.7L540.6 443L555.6 337.7Z" fill="#40307d" stroke="#40307d"></path><path d="M1022.3 920L1205.8 920L1036.3 791.7Z" fill="#7f2fd0" stroke="#7f2fd0"></path><path d="M1189.8 772.7L1404.4 795.7L1229.8 635.3Z" fill="#48328c" stroke="#48328c"></path><path d="M327.1 338.7L555.6 337.7L359.1 162.3Z" fill="#2d2952" stroke="#2d2952"></path><path d="M521.6 751.7L661.2 920L713.2 797.7Z" fill="#7232c3" stroke="#7232c3"></path><path d="M1205.8 920L1404.4 795.7L1189.8 772.7Z" fill="#7232c3" stroke="#7232c3"></path><path d="M1569.9 600.3L1569.9 433L1372.4 442Z" fill="#6633b6" stroke="#6633b6"></path><path d="M1569.9 600.3L1372.4 442L1359.4 615.3Z" fill="#6633b6" stroke="#6633b6"></path><path d="M1428.4 309.7L1601.9 141.3L1385.4 131.3Z" fill="#392e6f" stroke="#392e6f"></path><path d="M1569.9 433L1571.9 302.7L1428.4 309.7Z" fill="#322c60" stroke="#322c60"></path><path d="M359.1 162.3L555.6 337.7L536.6 173.3Z" fill="#2d2952" stroke="#2d2952"></path><path d="M514.6 0L359.1 162.3L536.6 173.3Z" fill="#322c60" stroke="#322c60"></path><path d="M171.5 635.3L355.1 621.3L354.1 481Z" fill="#48328c" stroke="#48328c"></path><path d="M354.1 481L355.1 621.3L528.6 604.3Z" fill="#7232c3" stroke="#7232c3"></path><path d="M521.6 751.7L549.6 920L661.2 920Z" fill="#6633b6" stroke="#6633b6"></path><path d="M1576.9 750.7L1569.9 600.3L1359.4 615.3Z" fill="#6633b6" stroke="#6633b6"></path><path d="M1713.5 166.3L1601.9 141.3L1571.9 302.7Z" fill="#2d2952" stroke="#2d2952"></path><path d="M384.1 920L549.6 920L521.6 751.7Z" fill="#2d2952" stroke="#2d2952"></path><path d="M1713.5 166.3L1571.9 302.7L1748.5 306.7Z" fill="#40307d" stroke="#40307d"></path><path d="M1571.9 302.7L1601.9 141.3L1428.4 309.7Z" fill="#48328c" stroke="#48328c"></path><path d="M1205.8 920L1395.4 920L1404.4 795.7Z" fill="#5b33a8" stroke="#5b33a8"></path><path d="M1404.4 795.7L1576.9 750.7L1359.4 615.3Z" fill="#6633b6" stroke="#6633b6"></path><path d="M1601.9 141.3L1545.9 0L1385.4 131.3Z" fill="#40307d" stroke="#40307d"></path><path d="M163.5 733.7L352.1 769.7L355.1 621.3Z" fill="#51339a" stroke="#51339a"></path><path d="M355.1 621.3L352.1 769.7L521.6 751.7Z" fill="#5b33a8" stroke="#5b33a8"></path><path d="M1556.9 920L1576.9 750.7L1404.4 795.7Z" fill="#6633b6" stroke="#6633b6"></path><path d="M1748.5 306.7L1571.9 302.7L1569.9 433Z" fill="#40307d" stroke="#40307d"></path><path d="M359.1 162.3L209.5 276.7L327.1 338.7Z" fill="#392e6f" stroke="#392e6f"></path><path d="M514.6 0L312.1 0L359.1 162.3Z" fill="#8d2add" stroke="#8d2add"></path><path d="M154.5 170.3L209.5 276.7L359.1 162.3Z" fill="#51339a" stroke="#51339a"></path><path d="M327.1 338.7L168.5 428L354.1 481Z" fill="#322c60" stroke="#322c60"></path><path d="M352.1 769.7L384.1 920L521.6 751.7Z" fill="#7232c3" stroke="#7232c3"></path><path d="M150.5 920L384.1 920L352.1 769.7Z" fill="#40307d" stroke="#40307d"></path><path d="M209.5 276.7L168.5 428L327.1 338.7Z" fill="#392e6f" stroke="#392e6f"></path><path d="M1748.5 306.7L1569.9 433L1752.5 465Z" fill="#392e6f" stroke="#392e6f"></path><path d="M1601.9 141.3L1775.5 0L1545.9 0Z" fill="#7232c3" stroke="#7232c3"></path><path d="M1752.5 465L1569.9 433L1569.9 600.3Z" fill="#7f2fd0" stroke="#7f2fd0"></path><path d="M1772.5 604.3L1752.5 465L1569.9 600.3Z" fill="#6633b6" stroke="#6633b6"></path><path d="M1395.4 920L1556.9 920L1404.4 795.7Z" fill="#5b33a8" stroke="#5b33a8"></path><path d="M1711.5 776.7L1772.5 604.3L1569.9 600.3Z" fill="#322c60" stroke="#322c60"></path><path d="M168.5 428L171.5 635.3L354.1 481Z" fill="#322c60" stroke="#322c60"></path><path d="M312.1 0L154.5 170.3L359.1 162.3Z" fill="#51339a" stroke="#51339a"></path><path d="M0 312.7L0 425L168.5 428Z" fill="#2d2952" stroke="#2d2952"></path><path d="M0 599.3L163.5 733.7L171.5 635.3Z" fill="#8d2add" stroke="#8d2add"></path><path d="M1711.5 776.7L1569.9 600.3L1576.9 750.7Z" fill="#48328c" stroke="#48328c"></path><path d="M1752.5 465L1920 437L1748.5 306.7Z" fill="#6633b6" stroke="#6633b6"></path><path d="M1556.9 920L1711.5 776.7L1576.9 750.7Z" fill="#7232c3" stroke="#7232c3"></path><path d="M312.1 0L180.5 0L154.5 170.3Z" fill="#51339a" stroke="#51339a"></path><path d="M0 599.3L171.5 635.3L168.5 428Z" fill="#8d2add" stroke="#8d2add"></path><path d="M171.5 635.3L163.5 733.7L355.1 621.3Z" fill="#8d2add" stroke="#8d2add"></path><path d="M1920 131.3L1713.5 166.3L1748.5 306.7Z" fill="#6633b6" stroke="#6633b6"></path><path d="M1920 131.3L1775.5 0L1713.5 166.3Z" fill="#392e6f" stroke="#392e6f"></path><path d="M1713.5 166.3L1775.5 0L1601.9 141.3Z" fill="#6633b6" stroke="#6633b6"></path><path d="M1556.9 920L1735.5 920L1711.5 776.7Z" fill="#7f2fd0" stroke="#7f2fd0"></path><path d="M1920 749.7L1920 580.3L1772.5 604.3Z" fill="#6633b6" stroke="#6633b6"></path><path d="M0 312.7L168.5 428L209.5 276.7Z" fill="#7232c3" stroke="#7232c3"></path><path d="M0 312.7L209.5 276.7L154.5 170.3Z" fill="#40307d" stroke="#40307d"></path><path d="M0 139.3L0 312.7L154.5 170.3Z" fill="#322c60" stroke="#322c60"></path><path d="M163.5 733.7L150.5 920L352.1 769.7Z" fill="#322c60" stroke="#322c60"></path><path d="M0 793.7L150.5 920L163.5 733.7Z" fill="#6633b6" stroke="#6633b6"></path><path d="M1920 580.3L1752.5 465L1772.5 604.3Z" fill="#322c60" stroke="#322c60"></path><path d="M1920 580.3L1920 437L1752.5 465Z" fill="#6633b6" stroke="#6633b6"></path><path d="M1920 437L1920 325.7L1748.5 306.7Z" fill="#7232c3" stroke="#7232c3"></path><path d="M0 425L0 599.3L168.5 428Z" fill="#322c60" stroke="#322c60"></path><path d="M180.5 0L0 139.3L154.5 170.3Z" fill="#8d2add" stroke="#8d2add"></path><path d="M1920 749.7L1772.5 604.3L1711.5 776.7Z" fill="#48328c" stroke="#48328c"></path><path d="M1920 325.7L1920 131.3L1748.5 306.7Z" fill="#322c60" stroke="#322c60"></path><path d="M180.5 0L0 0L0 139.3Z" fill="#392e6f" stroke="#392e6f"></path><path d="M1735.5 920L1920 749.7L1711.5 776.7Z" fill="#8d2add" stroke="#8d2add"></path><path d="M0 599.3L0 793.7L163.5 733.7Z" fill="#6633b6" stroke="#6633b6"></path><path d="M1920 131.3L1920 0L1775.5 0Z" fill="#8d2add" stroke="#8d2add"></path><path d="M0 793.7L0 920L150.5 920Z" fill="#322c60" stroke="#322c60"></path><path d="M1735.5 920L1920 920L1920 749.7Z" fill="#6633b6" stroke="#6633b6"></path></g></svg>