<svg id="visual" viewBox="0 0 1920 900" width="1920" height="900" xmlns="http://www.w3.org/2000/svg" xmlns:xlink="http://www.w3.org/1999/xlink" version="1.1"><path d="M0 73L137 46L274 118L411 73L549 136L686 64L823 145L960 100L1097 136L1234 55L1371 118L1509 46L1646 118L1783 91L1920 118L1920 0L1783 0L1646 0L1509 0L1371 0L1234 0L1097 0L960 0L823 0L686 0L549 0L411 0L274 0L137 0L0 0Z" fill="#2e2354"></path><path d="M0 271L137 163L274 235L411 289L549 307L686 271L823 343L960 199L1097 271L1234 190L1371 289L1509 190L1646 226L1783 208L1920 325L1920 116L1783 89L1646 116L1509 44L1371 116L1234 53L1097 134L960 98L823 143L686 62L549 134L411 71L274 116L137 44L0 71Z" fill="#3d296b"></path><path d="M0 334L137 343L274 361L411 379L549 442L686 433L823 424L960 370L1097 424L1234 316L1371 352L1509 343L1646 316L1783 334L1920 406L1920 323L1783 206L1646 224L1509 188L1371 287L1234 188L1097 269L960 197L823 341L686 269L549 305L411 287L274 233L137 161L0 269Z" fill="#4f2d83"></path><path d="M0 595L137 469L274 694L411 685L549 559L686 604L823 604L960 694L1097 649L1234 532L1371 568L1509 658L1646 658L1783 514L1920 586L1920 404L1783 332L1646 314L1509 341L1371 350L1234 314L1097 422L960 368L823 422L686 431L549 440L411 377L274 359L137 341L0 332Z" fill="#633099"></path><path d="M0 640L137 541L274 766L411 748L549 649L686 658L823 676L960 757L1097 757L1234 604L1371 658L1509 757L1646 712L1783 604L1920 631L1920 584L1783 512L1646 656L1509 656L1371 566L1234 530L1097 647L960 692L823 602L686 602L549 557L411 683L274 692L137 467L0 593Z" fill="#7a32af"></path><path d="M0 901L137 901L274 901L411 901L549 901L686 901L823 901L960 901L1097 901L1234 901L1371 901L1509 901L1646 901L1783 901L1920 901L1920 629L1783 602L1646 710L1509 755L1371 656L1234 602L1097 755L960 755L823 674L686 656L549 647L411 746L274 764L137 539L0 638Z" fill="#9330c4"></path></svg>